<svg xmlns="http://www.w3.org/2000/svg" viewBox="0 0 1557 300.3" width="1557" height="300.3" role="img" aria-label="Synapse by morgana.labs"><rect width="1557" height="300.3" fill="#f4efe4"/><defs><radialGradient id="syn-au-signal"><stop offset="0%" stop-color="#6ba3d9" stop-opacity="0.42"/><stop offset="55%" stop-color="#6ba3d9" stop-opacity="0.22"/><stop offset="100%" stop-color="#6ba3d9" stop-opacity="0"/></radialGradient><radialGradient id="syn-au-brass"><stop offset="0%" stop-color="#e8b75a" stop-opacity="0.5"/><stop offset="55%" stop-color="#e8b75a" stop-opacity="0.26"/><stop offset="100%" stop-color="#e8b75a" stop-opacity="0"/></radialGradient><radialGradient id="syn-au-proof"><stop offset="0%" stop-color="#4caf50" stop-opacity="0.3"/><stop offset="55%" stop-color="#4caf50" stop-opacity="0.15"/><stop offset="100%" stop-color="#4caf50" stop-opacity="0"/></radialGradient><filter id="syn-au-grain"><feTurbulence type="fractalNoise" baseFrequency="0.85" numOctaves="2" stitchTiles="stitch"/><feColorMatrix type="matrix" values="0 0 0 0 0  0 0 0 0 0  0 0 0 0 0  0 0 0 0.045 0"/></filter></defs><ellipse cx="1245.6" cy="24" rx="654" ry="216.2" fill="url(#syn-au-signal)" opacity="0.75"/><ellipse cx="155.7" cy="276.3" rx="467.1" ry="195.2" fill="url(#syn-au-brass)" opacity="0.55"/><ellipse cx="856.4" cy="345.3" rx="311.4" ry="105.1" fill="url(#syn-au-proof)" opacity="0.35"/><ellipse cx="591.7" cy="-15" rx="342.6" ry="120.1" fill="url(#syn-au-signal)" opacity="0.5"/><rect width="1557" height="300.3" fill-opacity="0" filter="url(#syn-au-grain)"/><path fill="#081022" d="M121.9140625 205.70703125Q104.921875 205.70703125 92.421875 200.43359375Q79.921875 195.16015625 72.890625 185.052734375Q65.859375 174.9453125 65.2734375 160.4921875H91.25Q91.8359375 168.109375 95.9375 173.138671875Q100.0390625 178.16796875 106.728515625 180.70703125Q113.41796875 183.24609375 121.62109375 183.24609375Q130.21484375 183.24609375 136.7578125 180.609375Q143.30078125 177.97265625 147.01171875 173.28515625Q150.72265625 168.59765625 150.72265625 162.34765625Q150.72265625 156.68359375 147.40234375 153.021484375Q144.08203125 149.359375 138.22265625 146.8203125Q132.36328125 144.28125 124.453125 142.328125L107.94921875 138.03125Q89.98046875 133.44140625 79.62890625 124.017578125Q69.27734375 114.59375 69.27734375 98.87109375Q69.27734375 85.98046875 76.2109375 76.361328125Q83.14453125 66.7421875 95.205078125 61.37109375Q107.265625 56.0 122.5 56.0Q138.02734375 56.0 149.74609375 61.37109375Q161.46484375 66.7421875 168.10546875 76.21484375Q174.74609375 85.6875 175.0390625 97.9921875H149.55078125Q148.57421875 88.6171875 141.298828125 83.490234375Q134.0234375 78.36328125 122.20703125 78.36328125Q114.00390625 78.36328125 108.095703125 80.8046875Q102.1875 83.24609375 99.0625 87.54296875Q95.9375 91.83984375 95.9375 97.30859375Q95.9375 103.36328125 99.599609375 107.220703125Q103.26171875 111.078125 108.974609375 113.421875Q114.6875 115.765625 120.64453125 117.328125L134.21875 120.74609375Q142.421875 122.69921875 150.0390625 125.970703125Q157.65625 129.2421875 163.759765625 134.173828125Q169.86328125 139.10546875 173.427734375 146.13671875Q176.9921875 153.16796875 176.9921875 162.640625Q176.9921875 175.3359375 170.44921875 185.052734375Q163.90625 194.76953125 151.6015625 200.23828125Q139.296875 205.70703125 121.9140625 205.70703125Z M207.75390625 244.28125Q202.48046875 244.37890625 198.037109375 243.548828125Q193.59375 242.71875 190.859375 241.64453125L196.9140625 221.625L198.18359375 222.015625Q205.99609375 224.06640625 211.513671875 222.30859375Q217.03125 220.55078125 220.3515625 211.6640625L222.5 205.8046875L183.046875 94.28125H210.29296875L235.390625 176.80078125H236.5625L261.7578125 94.28125H289.19921875L245.44921875 216.64453125Q242.421875 225.3359375 237.44140625 231.537109375Q232.4609375 237.73828125 225.13671875 241.009765625Q217.8125 244.28125 207.75390625 244.28125Z M325.13671875 139.59375V203.4609375H299.453125V94.28125H324.6484375V112.93359375H325.91796875Q329.62890625 103.75390625 337.587890625 98.333984375Q345.546875 92.9140625 357.8515625 92.9140625Q369.1796875 92.9140625 377.578125 97.69921875Q385.9765625 102.484375 390.615234375 111.712890625Q395.25390625 120.94140625 395.25390625 134.02734375V203.4609375H369.5703125V138.03125Q369.5703125 127.09375 363.90625 120.892578125Q358.2421875 114.69140625 348.28125 114.69140625Q341.54296875 114.69140625 336.318359375 117.62109375Q331.09375 120.55078125 328.115234375 126.068359375Q325.13671875 131.5859375 325.13671875 139.59375Z M445.64453125 205.70703125Q435.1953125 205.70703125 426.89453125 201.947265625Q418.59375 198.1875 413.80859375 190.86328125Q409.0234375 183.5390625 409.0234375 172.796875Q409.0234375 163.6171875 412.44140625 157.5625Q415.859375 151.5078125 421.767578125 147.89453125Q427.67578125 144.28125 435.09765625 142.376953125Q442.51953125 140.47265625 450.4296875 139.69140625Q460.09765625 138.6171875 466.0546875 137.8359375Q472.01171875 137.0546875 474.697265625 135.296875Q477.3828125 133.5390625 477.3828125 129.828125V129.33984375Q477.3828125 121.4296875 472.6953125 117.03515625Q468.0078125 112.640625 459.0234375 112.640625Q449.55078125 112.640625 444.033203125 116.7421875Q438.515625 120.84375 436.5625 126.41015625L412.63671875 122.9921875Q415.46875 113.03125 422.01171875 106.341796875Q428.5546875 99.65234375 437.978515625 96.283203125Q447.40234375 92.9140625 458.828125 92.9140625Q466.640625 92.9140625 474.453125 94.720703125Q482.265625 96.52734375 488.80859375 100.82421875Q495.3515625 105.12109375 499.2578125 112.34765625Q503.1640625 119.57421875 503.1640625 130.4140625V203.4609375H478.45703125V188.421875H477.67578125Q475.33203125 192.9140625 471.083984375 196.869140625Q466.8359375 200.82421875 460.537109375 203.265625Q454.23828125 205.70703125 445.64453125 205.70703125ZM452.1875 186.76171875Q460.0 186.76171875 465.6640625 183.685546875Q471.328125 180.609375 474.453125 175.482421875Q477.578125 170.35546875 477.578125 164.30078125V151.5078125Q476.30859375 152.484375 473.4765625 153.314453125Q470.64453125 154.14453125 467.03125 154.828125Q463.41796875 155.51171875 459.951171875 156.0Q456.484375 156.48828125 453.9453125 156.78125Q448.18359375 157.5625 443.642578125 159.369140625Q439.1015625 161.17578125 436.46484375 164.30078125Q433.828125 167.42578125 433.828125 172.40625Q433.828125 179.53515625 439.00390625 183.1484375Q444.1796875 186.76171875 452.1875 186.76171875Z M522.20703125 244.28125V94.28125H547.40234375V112.34765625H548.96484375Q550.91796875 108.44140625 554.53125 103.900390625Q558.14453125 99.359375 564.345703125 96.13671875Q570.546875 92.9140625 580.21484375 92.9140625Q592.8125 92.9140625 602.96875 99.359375Q613.125 105.8046875 619.130859375 118.3046875Q625.13671875 130.8046875 625.13671875 149.06640625Q625.13671875 167.03515625 619.27734375 179.6328125Q613.41796875 192.23046875 603.212890625 198.822265625Q593.0078125 205.4140625 580.1171875 205.4140625Q570.83984375 205.4140625 564.638671875 202.240234375Q558.4375 199.06640625 554.677734375 194.623046875Q550.91796875 190.1796875 548.96484375 186.17578125H547.890625V244.28125ZM573.0859375 184.3203125Q581.58203125 184.3203125 587.294921875 179.73046875Q593.0078125 175.140625 595.9375 167.1328125Q598.8671875 159.125 598.8671875 148.96875Q598.8671875 138.8125 595.9375 130.90234375Q593.0078125 122.9921875 587.34375 118.5Q581.6796875 114.0078125 573.0859375 114.0078125Q564.78515625 114.0078125 559.072265625 118.3046875Q553.359375 122.6015625 550.380859375 130.462890625Q547.40234375 138.32421875 547.40234375 148.96875Q547.40234375 159.515625 550.380859375 167.474609375Q553.359375 175.43359375 559.12109375 179.876953125Q564.8828125 184.3203125 573.0859375 184.3203125Z M725.52734375 123.28515625 702.1875 125.7265625Q700.72265625 120.35546875 695.83984375 116.205078125Q690.95703125 112.0546875 682.0703125 112.0546875Q674.0625 112.0546875 668.642578125 115.5703125Q663.22265625 119.0859375 663.22265625 124.5546875Q663.22265625 129.33984375 666.787109375 132.416015625Q670.3515625 135.4921875 678.65234375 137.34765625L697.3046875 141.25390625Q712.63671875 144.4765625 720.25390625 151.80078125Q727.87109375 159.125 727.87109375 170.74609375Q727.87109375 181.0 721.9140625 188.91015625Q715.95703125 196.8203125 705.458984375 201.21484375Q694.9609375 205.609375 681.2890625 205.609375Q661.26953125 205.609375 649.111328125 197.162109375Q636.953125 188.71484375 634.51171875 173.67578125L659.609375 171.33203125Q661.26953125 178.65625 666.884765625 182.416015625Q672.5 186.17578125 681.2890625 186.17578125Q690.46875 186.17578125 696.03515625 182.416015625Q701.6015625 178.65625 701.6015625 173.1875Q701.6015625 164.0078125 686.953125 160.6875L668.30078125 156.78125Q652.578125 153.36328125 645.05859375 145.697265625Q637.5390625 138.03125 637.5390625 126.1171875Q637.5390625 115.9609375 643.10546875 108.5390625Q648.671875 101.1171875 658.6328125 97.015625Q668.59375 92.9140625 681.6796875 92.9140625Q700.91796875 92.9140625 711.904296875 101.166015625Q722.890625 109.41796875 725.52734375 123.28515625Z M789.98046875 205.609375Q773.57421875 205.609375 761.66015625 198.724609375Q749.74609375 191.83984375 743.349609375 179.2421875Q736.953125 166.64453125 736.953125 149.5546875Q736.953125 132.66015625 743.30078125 119.916015625Q749.6484375 107.171875 761.171875 100.04296875Q772.6953125 92.9140625 788.3203125 92.9140625Q798.37890625 92.9140625 807.412109375 96.13671875Q816.4453125 99.359375 823.427734375 106.09765625Q830.41015625 112.8359375 834.4140625 123.236328125Q838.41796875 133.63671875 838.41796875 147.9921875V156.0H748.96484375V138.71484375H825.625L813.61328125 143.79296875Q813.61328125 134.515625 810.78125 127.630859375Q807.94921875 120.74609375 802.3828125 116.83984375Q796.81640625 112.93359375 788.515625 112.93359375Q780.21484375 112.93359375 774.35546875 116.83984375Q768.49609375 120.74609375 765.46875 127.337890625Q762.44140625 133.9296875 762.44140625 142.03515625V154.046875Q762.44140625 164.0078125 765.908203125 171.087890625Q769.375 178.16796875 775.673828125 181.87890625Q781.97265625 185.58984375 790.37109375 185.58984375Q795.83984375 185.58984375 800.380859375 184.02734375Q804.921875 182.46484375 808.193359375 179.291015625Q811.46484375 176.1171875 813.22265625 171.4296875L837.24609375 174.26171875Q834.90234375 183.734375 828.603515625 190.814453125Q822.3046875 197.89453125 812.490234375 201.751953125Q802.67578125 205.609375 789.98046875 205.609375Z"/><path fill="#56688a" d="M911.02734375 155.24278133659197Q908.244140625 155.24278133659197 906.3837890625 154.29063289909197Q904.5234375 153.33848446159197 903.3955078125 152.00547664909197Q902.267578125 150.67246883659197 901.681640625 149.47129696159197H901.212890625V154.65684383659197H893.654296875V111.00450008659197H901.359375V127.32285946159197H901.681640625Q902.267578125 126.15098446159197 903.3515625 124.78867977409197Q904.435546875 123.42637508659197 906.2958984375 122.45957821159197Q908.15625 121.49278133659197 911.056640625 121.49278133659197Q914.8359375 121.49278133659197 917.8828125 123.42637508659197Q920.9296875 125.35996883659197 922.7314453125 129.10996883659197Q924.533203125 132.85996883659197 924.533203125 138.33848446159197Q924.533203125 143.72910946159197 922.775390625 147.50840633659197Q921.017578125 151.28770321159197 917.9560546875 153.26524227409197Q914.89453125 155.24278133659197 911.02734375 155.24278133659197ZM908.91796875 148.91465633659197Q911.466796875 148.91465633659197 913.1806640625 147.53770321159197Q914.89453125 146.16075008659197 915.7734375 143.75840633659197Q916.65234375 141.35606258659197 916.65234375 138.30918758659197Q916.65234375 135.26231258659197 915.7734375 132.88926571159197Q914.89453125 130.51621883659197 913.1953125 129.16856258659197Q911.49609375 127.82090633659197 908.91796875 127.82090633659197Q906.427734375 127.82090633659197 904.7138671875 129.10996883659197Q903.0 130.39903133659197 902.1064453125 132.75742977409197Q901.212890625 135.11582821159197 901.212890625 138.30918758659197Q901.212890625 141.47325008659197 902.1064453125 143.86094539909197Q903.0 146.24864071159197 904.728515625 147.58164852409197Q906.45703125 148.91465633659197 908.91796875 148.91465633659197Z M932.501953125 166.90293758659197Q930.919921875 166.93223446159197 929.5869140625 166.68321102409197Q928.25390625 166.43418758659197 927.43359375 166.11192196159197L929.25 160.10606258659197L929.630859375 160.22325008659197Q931.974609375 160.83848446159197 933.6298828125 160.31114071159197Q935.28515625 159.78379696159197 936.28125 157.11778133659197L936.92578125 155.35996883659197L925.08984375 121.90293758659197H933.263671875L940.79296875 146.65879696159197H941.14453125L948.703125 121.90293758659197H956.935546875L943.810546875 158.61192196159197Q942.90234375 161.21934383659197 941.408203125 163.07969539909197Q939.9140625 164.94004696159197 937.716796875 165.92149227409197Q935.51953125 166.90293758659197 932.501953125 166.90293758659197Z"/><g transform="translate(1005.2,95.1) scale(1.7188)" fill="#081022"><path d="M14,44 L22,14 L32,36 L42,14 L50,44 Z"/><line x1="10" y1="48" x2="54" y2="48" stroke="#081022" stroke-width="1"/><path d="M14,52 L22,58 L32,54 L42,58 L50,52 Z" opacity="0.5"/></g><path fill="#081022" d="M1156.2039625901443 154.65684383659197V110.82119930534196H1166.0454176682692V118.31011532096697H1166.5943434495193Q1167.9666579026443 114.54605282096696 1171.1425856370192 112.40916317252947Q1174.3185133713944 110.27227352409197 1178.6707106370193 110.27227352409197Q1183.1405348557694 110.27227352409197 1186.1988356370193 112.42876766471697Q1189.2571364182693 114.58526180534197 1190.4726149338942 118.31011532096697H1190.9431227463942Q1192.4330641526442 114.66367977409197 1195.8834547776441 112.46797664909198Q1199.3338454026443 110.27227352409197 1204.1173414963944 110.27227352409197Q1210.1555250901442 110.27227352409197 1213.9784010667067 114.09514950065447Q1217.8012770432692 117.91802547721697 1217.8012770432692 125.25010555534197V154.65684383659197H1207.4501051682694V126.81846493034197Q1207.4501051682694 122.77993953971696 1205.274006535457 120.87830379752947Q1203.0979079026442 118.97666805534197 1199.9611891526442 118.97666805534197Q1196.2363356370192 118.97666805534197 1194.1582594651443 121.30960262565446Q1192.0801832932693 123.64253719596697 1192.0801832932693 127.28897274284196V154.65684383659197H1181.8858473557693V126.42637508659197Q1181.8858473557693 123.01519344596697 1179.8861891526444 120.99593075065448Q1177.8865309495193 118.97666805534197 1174.5929762620192 118.97666805534197Q1172.3580641526444 118.97666805534197 1170.5152418870193 120.11372860221698Q1168.6724196213943 121.25078914909197 1167.5941725510818 123.28965633659197Q1166.5159254807693 125.32852352409196 1166.5159254807693 127.99473446159197V154.65684383659197Z M1244.5025954026444 155.51944149284196Q1238.0723219651443 155.51944149284196 1233.3672438401443 152.69639461784197Q1228.6621657151443 149.873347742842 1226.0939772385818 144.776179774092Q1223.5257887620194 139.679011805342 1223.5257887620194 132.93506649284197Q1223.5257887620194 126.15191219596697 1226.0939772385818 121.03513973502947Q1228.6621657151443 115.91836727409196 1233.3672438401443 113.09532039909197Q1238.0723219651443 110.27227352409197 1244.5025954026444 110.27227352409197Q1250.9328688401442 110.27227352409197 1255.6379469651442 113.09532039909197Q1260.3430250901442 115.91836727409196 1262.9308180588941 121.03513973502947Q1265.5186110276443 126.15191219596697 1265.5186110276443 132.93506649284197Q1265.5186110276443 139.679011805342 1262.9308180588941 144.776179774092Q1260.3430250901442 149.873347742842 1255.6379469651442 152.69639461784197Q1250.9328688401442 155.51944149284196 1244.5025954026444 155.51944149284196ZM1244.5025954026444 147.20713680534197Q1248.0706129807693 147.20713680534197 1250.3839430588941 145.30550106315448Q1252.6972731370192 143.403865320967 1253.8539381760818 140.14951961784197Q1255.0106032151443 136.89517391471696 1255.0106032151443 132.93506649284197Q1255.0106032151443 128.896541102217 1253.8539381760818 125.64219539909197Q1252.6972731370192 122.38784969596696 1250.3839430588941 120.48621395377947Q1248.0706129807693 118.58457821159197 1244.5025954026444 118.58457821159197Q1241.0129957932693 118.58457821159197 1238.6604567307693 120.48621395377947Q1236.3079176682693 122.38784969596696 1235.1512526292067 125.64219539909197Q1233.9945875901442 128.896541102217 1233.9945875901442 132.93506649284197Q1233.9945875901442 136.89517391471696 1235.1512526292067 140.14951961784197Q1236.3079176682693 143.403865320967 1238.6604567307693 145.30550106315448Q1241.0129957932693 147.20713680534197 1244.5025954026444 147.20713680534197Z M1271.2039137620193 154.65684383659197V110.82119930534196H1281.2022047776443V118.19248836784197H1281.6727125901443Q1282.8489821213943 114.35000789909196 1285.7896559495193 112.29153621940446Q1288.7303297776443 110.23306453971696 1292.4943922776442 110.23306453971696Q1293.3177809495191 110.23306453971696 1294.3960280198316 110.31148250846697Q1295.4742750901441 110.38990047721697 1296.1800368088943 110.50752743034197V119.99610164909197Q1295.5134840745193 119.76084774284197 1294.1019606370191 119.60401180534197Q1292.6904371995192 119.44717586784196 1291.3965407151443 119.44717586784196Q1288.5342848557693 119.44717586784196 1286.2993727463943 120.66265438346697Q1284.0644606370192 121.87813289909198 1282.7901686448317 123.99541805534197Q1281.5158766526442 126.11270321159196 1281.5158766526442 128.93575008659198V154.65684383659197Z M1317.2352614182691 171.98721493034196Q1308.8837477463942 171.98721493034196 1304.1002516526441 168.75247371940446Q1299.3167555588943 165.51773250846696 1297.9444411057693 160.93028133659197L1307.1977614182692 158.65616024284196Q1307.8251051682691 159.95005672721697 1309.040583683894 161.22434871940447Q1310.2560621995192 162.49864071159197 1312.2949293870192 163.34163387565448Q1314.3337965745193 164.184627039717 1317.4313063401441 164.184627039717Q1321.8227125901442 164.184627039717 1324.7045729417068 162.0477373912795Q1327.5864332932692 159.91084774284198 1327.5864332932692 155.08814266471697V146.81504696159197H1326.9982985276442Q1326.2533278245191 148.38340633659197 1324.724177433894 150.04978817252947Q1323.1950270432692 151.71617000846697 1320.7052565354566 152.87283504752946Q1318.2154860276441 154.02950008659198 1314.4122145432693 154.02950008659198Q1309.3934645432691 154.02950008659198 1305.2961256760818 151.637752039717Q1301.1987868088943 149.24600399284196 1298.787434269832 144.50171688346697Q1296.3760817307693 139.75742977409197 1296.3760817307693 132.621394617842Q1296.3760817307693 125.40694149284197 1298.787434269832 120.42740047721696Q1301.1987868088943 115.44785946159197 1305.3157301682693 112.86006649284198Q1309.4326735276443 110.27227352409197 1314.4906325120191 110.27227352409197Q1318.3331129807693 110.27227352409197 1320.8424879807694 111.56617000846697Q1323.3518629807693 112.86006649284197 1324.8418043870192 114.68328426627946Q1326.3317457932692 116.50650203971696 1327.1551344651443 118.07486141471696H1327.7040602463942V110.82119930534196H1337.7807692307692V155.362605555342Q1337.7807692307692 160.96949032096697 1335.1145582932693 164.65513485221697Q1332.4483473557693 168.34077938346698 1327.802082707332 170.1639971569045Q1323.1558180588943 171.98721493034196 1317.2352614182691 171.98721493034196ZM1317.3136793870192 145.91324032096696Q1322.2540114182693 145.91324032096696 1324.9398268479567 142.36482723502945Q1327.6256422776441 138.81641414909197 1327.6256422776441 132.54297664909197Q1327.6256422776441 128.38682430534197 1326.4493727463941 125.28931453971697Q1325.2731032151441 122.19180477409196 1322.959773137019 120.46660946159196Q1320.6464430588942 118.74141414909197 1317.3136793870192 118.74141414909197Q1313.8632887620192 118.74141414909197 1311.5499586838941 120.54502743034197Q1309.2366286057693 122.34864071159197 1308.0799635667067 125.46575496940447Q1306.9232985276442 128.58286922721697 1306.9232985276442 132.54297664909197Q1306.9232985276442 136.542293055342 1308.0995680588942 139.56138485221697Q1309.2758375901442 142.58047664909196 1311.6087721604567 144.24685848502946Q1313.9417067307693 145.91324032096696 1317.3136793870192 145.91324032096696Z M1358.0126051682694 155.558650477217Q1353.8172438401443 155.558650477217 1350.4844801682693 154.04910457877946Q1347.1517164963943 152.53955868034197 1345.2304762620192 149.59888485221697Q1343.3092360276444 146.65821102409197 1343.3092360276444 142.34522274284197Q1343.3092360276444 138.65957821159196 1344.6815504807694 136.22862118034197Q1346.0538649338944 133.797664149092 1348.4260084885818 132.346931727217Q1350.7981520432693 130.89619930534198 1353.7780348557694 130.13162411002946Q1356.7579176682693 129.36704891471697 1359.9338454026442 129.05337703971696Q1363.8155348557693 128.62207821159197 1366.2072829026442 128.308406336592Q1368.5990309495194 127.99473446159197 1369.6772780198319 127.28897274284196Q1370.7555250901444 126.58321102409197 1370.7555250901444 125.09326961784197V124.89722469596697Q1370.7555250901444 121.72129696159197 1368.8734938401444 119.95689266471697Q1366.9914625901442 118.19248836784197 1363.3842360276442 118.19248836784197Q1359.5809645432694 118.19248836784197 1357.3656569260818 119.83926571159198Q1355.1503493088942 121.48604305534198 1354.3661696213942 123.72095516471697L1344.7599684495192 122.34864071159197Q1345.8970289963943 118.34932430534197 1348.5240309495193 115.66350887565446Q1351.1510329026444 112.97769344596696 1354.9346998948317 111.62498348502947Q1358.7183668870193 110.27227352409197 1363.3058180588944 110.27227352409197Q1366.4425368088944 110.27227352409197 1369.5792555588944 110.99763973502948Q1372.7159743088944 111.72300594596697 1375.3429762620194 113.44820125846698Q1377.9699782151442 115.17339657096697 1379.5383375901442 118.07486141471696Q1381.1066969651442 120.97632625846697 1381.1066969651442 125.32852352409196V154.65684383659197H1371.1868239182693V148.61866024284197H1370.8731520432693Q1369.9321364182692 150.42227352409196 1368.2265455979568 152.01023739127947Q1366.5209547776442 153.598201258467 1363.9919752854566 154.578425867842Q1361.4629957932693 155.558650477217 1358.0126051682694 155.558650477217ZM1360.6396071213942 147.95210750846698Q1363.7763258713942 147.95210750846698 1366.0504469651441 146.71702450065447Q1368.3245680588943 145.48194149284197 1369.5792555588941 143.42346981315447Q1370.8339430588942 141.36499813346697 1370.8339430588942 138.93404110221698V133.797664149092Q1370.3242262620192 134.189753992842 1369.1871657151441 134.52303036002948Q1368.0501051682693 134.85630672721697 1366.5993727463942 135.13076961784196Q1365.1486403245192 135.40523250846698 1363.7567213792067 135.60127743034198Q1362.3648024338943 135.79732235221698 1361.3453688401444 135.91494930534196Q1359.0320387620193 136.22862118034197 1357.208820988582 136.95398739127947Q1355.3856032151443 137.67935360221696 1354.3269606370193 138.93404110221695Q1353.2683180588942 140.18872860221697 1353.2683180588942 142.18838680534196Q1353.2683180588942 145.05064266471697 1355.3463942307694 146.50137508659196Q1357.4244704026444 147.95210750846698 1360.6396071213942 147.95210750846698Z M1399.0644118088942 129.01416805534197V154.65684383659197H1388.7524489182692V110.82119930534196H1398.8683668870192V118.31011532096697H1399.3780836838941Q1400.868025090144 114.62447078971697 1404.0635573167067 112.44837215690447Q1407.2590895432693 110.27227352409197 1412.1994215745192 110.27227352409197Q1416.747663762019 110.27227352409197 1420.1196364182692 112.19351375846696Q1423.4916090745191 114.11475399284197 1425.3540358323316 117.82000301627947Q1427.2164625901441 121.52525203971697 1427.2164625901441 126.77925594596697V154.65684383659197H1416.9044996995192V128.38682430534197Q1416.9044996995192 123.99541805534197 1414.6303786057692 121.50564754752946Q1412.3562575120193 119.01587703971697 1408.3569411057692 119.01587703971697Q1405.6515211838941 119.01587703971697 1403.5538405198317 120.19214657096697Q1401.456159855769 121.36841610221697 1400.2602858323316 123.58372371940447Q1399.0644118088942 125.79903133659197 1399.0644118088942 129.01416805534197Z M1447.4482985276443 155.558650477217Q1443.2529371995192 155.558650477217 1439.9201735276442 154.04910457877946Q1436.5874098557692 152.53955868034197 1434.6661696213941 149.59888485221697Q1432.7449293870193 146.65821102409197 1432.7449293870193 142.34522274284197Q1432.7449293870193 138.65957821159196 1434.1172438401443 136.22862118034197Q1435.4895582932693 133.797664149092 1437.8617018479567 132.346931727217Q1440.2338454026442 130.89619930534198 1443.2137282151443 130.13162411002946Q1446.1936110276442 129.36704891471697 1449.3695387620191 129.05337703971696Q1453.2512282151442 128.62207821159197 1455.6429762620191 128.308406336592Q1458.0347243088943 127.99473446159197 1459.1129713792068 127.28897274284196Q1460.1912184495193 126.58321102409197 1460.1912184495193 125.09326961784197V124.89722469596697Q1460.1912184495193 121.72129696159197 1458.3091871995193 119.95689266471697Q1456.4271559495191 118.19248836784197 1452.819929387019 118.19248836784197Q1449.0166579026443 118.19248836784197 1446.8013502854567 119.83926571159198Q1444.586042668269 121.48604305534198 1443.801862980769 123.72095516471697L1434.195661808894 122.34864071159197Q1435.3327223557692 118.34932430534197 1437.9597243088942 115.66350887565446Q1440.5867262620193 112.97769344596696 1444.3703932542066 111.62498348502947Q1448.1540602463942 110.27227352409197 1452.7415114182693 110.27227352409197Q1455.8782301682693 110.27227352409197 1459.0149489182693 110.99763973502948Q1462.1516676682693 111.72300594596697 1464.7786696213943 113.44820125846698Q1467.4056715745191 115.17339657096697 1468.9740309495191 118.07486141471696Q1470.5423903245191 120.97632625846697 1470.5423903245191 125.32852352409196V154.65684383659197H1460.6225172776442V148.61866024284197H1460.3088454026442Q1459.3678297776441 150.42227352409196 1457.6622389573317 152.01023739127947Q1455.956648137019 153.598201258467 1453.4276686448316 154.578425867842Q1450.8986891526442 155.558650477217 1447.4482985276443 155.558650477217ZM1450.075300480769 147.95210750846698Q1453.212019230769 147.95210750846698 1455.486140324519 146.71702450065447Q1457.7602614182692 145.48194149284197 1459.014948918269 143.42346981315447Q1460.269636418269 141.36499813346697 1460.269636418269 138.93404110221698V133.797664149092Q1459.7599196213941 134.189753992842 1458.622859074519 134.52303036002948Q1457.4857985276442 134.85630672721697 1456.0350661057691 135.13076961784196Q1454.584333683894 135.40523250846698 1453.1924147385816 135.60127743034198Q1451.8004957932692 135.79732235221698 1450.7810621995193 135.91494930534196Q1448.4677321213942 136.22862118034197 1446.6445143479568 136.95398739127947Q1444.8212965745192 137.67935360221696 1443.7626539963942 138.93404110221695Q1442.7040114182691 140.18872860221697 1442.7040114182691 142.18838680534196Q1442.7040114182691 145.05064266471697 1444.7820875901443 146.50137508659196Q1446.8601637620193 147.95210750846698 1450.075300480769 147.95210750846698Z"/><path fill="#e8b75a" d="M1485.7162672776442 155.32339657096696Q1483.050056340144 155.32339657096696 1481.2268385667066 153.5001787975295Q1479.403620793269 151.67696102409198 1479.403620793269 149.04995907096696Q1479.403620793269 146.42295711784197 1481.2268385667066 144.59973934440447Q1483.050056340144 142.77652157096696 1485.7162672776442 142.77652157096696Q1488.3824782151441 142.77652157096696 1490.2056959885817 144.59973934440447Q1492.028913762019 146.42295711784197 1492.028913762019 149.04995907096696Q1492.028913762019 151.67696102409198 1490.2056959885817 153.5001787975295Q1488.3824782151441 155.32339657096696 1485.7162672776442 155.32339657096696Z"/><g opacity="0.75"><path fill="#081022" d="M1272.8577987980768 202.92653403340083V180.44253403340082H1276.461398798077V199.60013403340082H1286.132598798077V202.92653403340083Z M1302.2101987980768 202.92653403340083 1307.908198798077 180.44253403340082H1312.5897987980768L1318.287798798077 202.92653403340083H1314.6533987980768L1313.3289987980768 197.35173403340082H1307.168998798077L1305.875398798077 202.92653403340083ZM1307.815798798077 194.39493403340083H1312.6513987980768L1311.2345987980768 188.14253403340084Q1310.8649987980768 186.54093403340082 1310.6031987980768 185.27813403340082Q1310.3413987980769 184.01533403340082 1310.2489987980769 183.52253403340083Q1310.1565987980769 184.01533403340082 1309.9101987980769 185.26273403340082Q1309.6637987980769 186.51013403340082 1309.2941987980769 188.11173403340084Z M1334.9197987980767 202.92653403340083V180.44253403340082H1341.6649987980768Q1344.8989987980767 180.44253403340082 1346.7777987980767 181.98253403340084Q1348.6565987980769 183.52253403340083 1348.6565987980769 186.23293403340082Q1348.6565987980769 187.74213403340082 1347.9789987980769 188.86633403340082Q1347.301398798077 189.99053403340082 1346.1309987980767 190.6065340334008Q1344.9605987980767 191.22253403340082 1343.4513987980768 191.22253403340082V191.00693403340082Q1345.1145987980767 190.97613403340083 1346.392798798077 191.62293403340084Q1347.6709987980769 192.26973403340082 1348.4101987980769 193.53253403340082Q1349.1493987980768 194.79533403340082 1349.1493987980768 196.55093403340084Q1349.1493987980768 198.49133403340082 1348.2869987980769 199.9389340334008Q1347.4245987980769 201.38653403340084 1345.838398798077 202.15653403340082Q1344.2521987980767 202.92653403340083 1342.0653987980768 202.92653403340083ZM1338.4001987980769 199.8773340334008H1341.8189987980768Q1343.5437987980768 199.8773340334008 1344.5601987980767 198.95333403340084Q1345.5765987980767 198.02933403340083 1345.5765987980767 196.39693403340084Q1345.5765987980767 194.73373403340082 1344.5601987980767 193.73273403340082Q1343.5437987980768 192.7317340334008 1341.8189987980768 192.7317340334008H1338.4001987980769ZM1338.4001987980769 189.77493403340083H1341.6341987980768Q1343.2357987980768 189.77493403340083 1344.1443987980767 188.92793403340082Q1345.0529987980767 188.0809340334008 1345.0529987980767 186.6333340334008Q1345.0529987980767 185.15493403340082 1344.1443987980767 184.32333403340084Q1343.2357987980768 183.49173403340083 1341.6649987980768 183.49173403340083H1338.4001987980769Z M1373.1425987980767 203.23453403340082Q1370.8633987980768 203.23453403340082 1369.2001987980766 202.4645340334008Q1367.5369987980766 201.69453403340083 1366.6283987980767 200.27773403340083Q1365.7197987980767 198.86093403340084 1365.7197987980767 196.95133403340083H1369.2925987980768Q1369.2925987980768 198.39893403340082 1370.3397987980768 199.23053403340083Q1371.3869987980768 200.06213403340084 1373.2041987980767 200.06213403340084Q1374.8981987980767 200.06213403340084 1375.8837987980767 199.24593403340083Q1376.8693987980766 198.42973403340082 1376.8693987980766 196.98213403340083Q1376.8693987980766 195.78093403340083 1376.1917987980767 194.90313403340082Q1375.5141987980767 194.02533403340084 1374.2513987980767 193.71733403340082L1371.5409987980768 192.94733403340084Q1368.9845987980768 192.23893403340082 1367.5985987980766 190.4987340334008Q1366.2125987980767 188.75853403340082 1366.2125987980767 186.35613403340082Q1366.2125987980767 184.44653403340084 1367.0595987980766 183.0605340334008Q1367.9065987980766 181.67453403340082 1369.4619987980768 180.8891340334008Q1371.0173987980768 180.10373403340083 1373.1425987980767 180.10373403340083Q1376.3457987980767 180.10373403340083 1378.2245987980768 181.78233403340084Q1380.1033987980768 183.46093403340083 1380.1341987980768 186.26373403340082H1376.5305987980767Q1376.5305987980767 184.87773403340083 1375.6373987980767 184.07693403340082Q1374.7441987980767 183.2761340334008 1373.1117987980767 183.2761340334008Q1371.5409987980768 183.2761340334008 1370.6631987980768 184.03073403340082Q1369.7853987980768 184.78533403340083 1369.7853987980768 186.10973403340083Q1369.7853987980768 187.34173403340083 1370.4475987980768 188.2041340334008Q1371.1097987980768 189.0665340334008 1372.3417987980768 189.43613403340083L1375.1445987980767 190.23693403340081Q1377.7009987980766 190.91453403340083 1379.0715987980766 192.63933403340081Q1380.4421987980768 194.36413403340083 1380.4421987980768 196.85893403340083Q1380.4421987980768 198.76853403340084 1379.5335987980768 200.20073403340083Q1378.6249987980768 201.63293403340083 1376.9925987980769 202.4337340334008Q1375.3601987980767 203.23453403340082 1373.1425987980767 203.23453403340082Z"/><rect x="1152.4" y="189.6" width="93.5" height="4.2" fill="#081022" opacity="0.45"/></g></svg>